# xmcd
#
# Track frame offsets:
#	150
#	7644
#	26033
#	50599
#	75347
#	95855
#	115482
#	136486
#	162435
#	189099
#	212732
#	236890
#	257008
#	280641
#	305863
#
# Disc length: 4319 seconds
#
# Revision: 1
# Processed by: cddbd v1.5.1PL0 Copyright (c) Steve Scherf et al.
# Submitted via: CDex 1.50Beta5
#
DISCID=cc10dd0f
DTITLE=さまざまなアーティスト - オリジナルCD1
DYEAR=1900
DGENRE=Pop
TTITLE0=宇多田ヒカル/ギターの弾き語り
TTITLE1=プッチモニ/ちょこっとLOVE
TTITLE2=Every Little Thing/Pray
TTITLE3=Mr. Chirdren/口笛
TTITLE4=井手麻里子/There must be an angel
TTITLE5=スピッツ/Spica
TTITLE6=Every Little Thing/Get Into A Groove
TTITLE7=Speed/Long Way Home
TTITLE8=GLAY/OH HAPPINES
TTITLE9=aiko/カブトムシ
TTITLE10=TOKIO/君を想うとき
TTITLE11=持田かおり/もう一度
TTITLE12=Bluem of Youth/ラストツアー 〜約束の場所〜
TTITLE13=B'z/いつかのメリークリスマス
TTITLE14=MARIAH CAREY/ALL I WANT FOR CHRISTMAS IS ...
EXTD=
EXTT0=
EXTT1=
EXTT2=
EXTT3=
EXTT4=
EXTT5=
EXTT6=
EXTT7=
EXTT8=
EXTT9=
EXTT10=
EXTT11=
EXTT12=
EXTT13=
EXTT14=
PLAYORDER=
